<svg version="1.1" width="350.38" height="350.38" viewBox="0 0 350.38342 350.3833" xmlns="http://www.w3.org/2000/svg">
    <g transform="translate(-785.96118,-544.27869)">
        <path d="m 627.944,633.317 c -49.298,-49.298 -51.21,-128.006 -5.791,-179.621 v 0 c 0.49,0.559 0.985,1.123 1.486,1.691 v 0 c 20.741,23.545 31.379,53.98 31.533,85.358 v 0 c 0.081,16.699 6.49,33.37 19.233,46.113 v 0 c 12.742,12.742 29.414,19.151 46.112,19.233 v 0 c 31.378,0.153 61.812,10.792 85.358,31.532 v 0 c 0.568,0.5 1.132,0.995 1.69,1.486 v 0 c -24.754,21.783 -55.752,32.679 -86.738,32.682 v 0 c -33.62,0.003 -67.228,-12.819 -92.883,-38.474" transform="matrix(1.3333333,0,0,-1.3333333,0,1440)" fill="#000"/>
        <path d="m 818.091,625.408 c -20.741,-23.546 -31.379,-53.98 -31.533,-85.359 v 0 c -0.082,-16.698 -6.491,-33.37 -19.233,-46.112 v 0 c -12.743,-12.742 -29.414,-19.151 -46.113,-19.233 v 0 C 689.834,474.551 659.4,463.912 635.854,443.172 v 0 c -0.567,-0.501 -1.131,-0.996 -1.69,-1.486 v 0 c 51.614,-45.419 130.322,-43.508 179.621,5.791 v 0 c 49.299,49.299 51.21,128.006 5.791,179.621 v 0 c -0.49,-0.559 -0.985,-1.123 -1.485,-1.69" transform="matrix(1.3333333,0,0,-1.3333333,0,1440)" fill="#000"/>
    </g>
</svg>
