<?xml version="1.0" encoding="UTF-8" standalone="no"?>
<svg
        version="1.1"
        width="250.07262"
        height="256.75986"
        viewBox="0 0 250.07262 256.75986"
        xmlns="http://www.w3.org/2000/svg">
    <defs>
        <clipPath id="rounded-corners">
            <rect
                    x="0"
                    y="0"
                    width="250.07262"
                    height="256.75986"
                    rx="32"
                    ry="32" />
        </clipPath>
    </defs>
    <g clip-path="url(#rounded-corners)">
        <g transform="translate(-831.32923,-590.56039)">
            <g transform="translate(-4.7873478,-0.53001254)" style="fill:#ffffff">
                <path
                        d="m 872.72816,628.68191 c -46.91271,48.16725 -48.7322,125.0699 -5.5108,175.501 v 0 c 0.46629,-0.54618 0.93734,-1.09724 1.4141,-1.65221 v 0 c 19.73745,-23.00495 29.86073,-52.74185 30.00728,-83.40013 v 0 c 0.0771,-16.31597 6.17598,-32.60458 18.30241,-45.0553 v 0 c 12.12548,-12.44973 27.99081,-18.71172 43.88087,-18.79184 v 0 c 29.85978,-0.14949 58.82128,-10.54447 81.22798,-30.80875 v 0 c 0.5405,-0.48853 1.0772,-0.97218 1.6082,-1.45191 v 0 c -23.5563,-21.28336 -53.05443,-31.92944 -82.54117,-31.93237 v 0 c -31.9933,-0.003 -63.97518,12.52497 -88.38887,37.59151"
                        style="fill:#ffffff;stroke:none;stroke-width:0.964255" />
                <path
                        d="m 1053.6749,636.4095 c -19.7374,23.00592 -29.8607,52.74185 -30.0073,83.40111 v 0 c -0.078,16.31499 -6.1769,32.60458 -18.3024,45.05432 v 0 c -12.12641,12.44973 -27.99078,18.71173 -43.8818,18.79185 v 0 c -29.85978,0.14949 -58.82123,10.54446 -81.22796,30.80874 v 0 c -0.53957,0.48951 -1.07628,0.97315 -1.60823,1.45192 v 0 c 49.11666,44.37721 124.01639,42.51004 170.93009,-5.65818 v 0 c 46.9136,-48.16821 48.7322,-125.0699 5.5108,-175.50099 v 0 c -0.4663,0.54618 -0.9374,1.09724 -1.4132,1.65123"
                        style="fill:#ffffff;stroke:none;stroke-width:0.964255" />
            </g>
        </g>
    </g>
</svg>
